<svg width="43" height="43" viewBox="0 0 43 43" fill="none" xmlns="http://www.w3.org/2000/svg">
<circle cx="22" cy="22" r="18" fill="#35A53C"/>
<path d="M4 22C4 17.2261 5.89642 12.6477 9.27208 9.27208C12.6477 5.89642 17.2261 4 22 4C26.7739 4 31.3523 5.89642 34.7279 9.27208C38.1036 12.6477 40 17.2261 40 22C40 26.7739 38.1036 31.3523 34.7279 34.7279C31.3523 38.1036 26.7739 40 22 40C17.2261 40 12.6477 38.1036 9.27208 34.7279C5.89642 31.3523 4 26.7739 4 22ZM30.4744 18.7744C30.6418 18.607 30.7745 18.4084 30.8651 18.1897C30.9557 17.971 31.0023 17.7367 31.0023 17.5C31.0023 17.2633 30.9557 17.029 30.8651 16.8103C30.7745 16.5916 30.6418 16.393 30.4744 16.2256C30.307 16.0582 30.1084 15.9255 29.8897 15.8349C29.671 15.7443 29.4367 15.6977 29.2 15.6977C28.9633 15.6977 28.729 15.7443 28.5103 15.8349C28.2916 15.9255 28.093 16.0582 27.9256 16.2256L20.2 23.9548L16.0744 19.8256C15.907 19.6582 15.7084 19.5255 15.4897 19.4349C15.271 19.3443 15.0367 19.2977 14.8 19.2977C14.5633 19.2977 14.329 19.3443 14.1103 19.4349C13.8916 19.5255 13.693 19.6582 13.5256 19.8256C13.3582 19.993 13.2255 20.1916 13.1349 20.4103C13.0443 20.629 12.9977 20.8633 12.9977 21.1C12.9977 21.3367 13.0443 21.571 13.1349 21.7897C13.2255 22.0084 13.3582 22.207 13.5256 22.3744L18.9256 27.7744C19.0928 27.942 19.2914 28.075 19.5101 28.1658C19.7288 28.2565 19.9632 28.3032 20.2 28.3032C20.4368 28.3032 20.6712 28.2565 20.8899 28.1658C21.1086 28.075 21.3072 27.942 21.4744 27.7744L30.4744 18.7744Z" fill="#B6E8B9"/>
</svg>
