<svg width="135" height="31" viewBox="0 0 135 31" fill="none" xmlns="http://www.w3.org/2000/svg">
<g clip-path="url(#clip0_255_8117)">
<path d="M41.974 16.3598L45.0203 17.2966C44.8175 18.1646 44.4921 18.8897 44.0546 19.4719C43.6118 20.0542 43.0677 20.4935 42.4168 20.7899C41.7659 21.0863 40.9336 21.2345 39.9253 21.2345C38.7036 21.2345 37.7006 21.0545 36.927 20.6946C36.1535 20.3347 35.4812 19.6995 34.9211 18.7892C34.3555 17.8788 34.0781 16.7197 34.0781 15.3012C34.0781 13.4117 34.5743 11.9562 35.5666 10.9452C36.5589 9.92901 37.9567 9.4209 39.7706 9.4209C41.1897 9.4209 42.3047 9.712 43.1157 10.2942C43.9266 10.8764 44.5295 11.7709 44.9242 12.9777L41.8513 13.671C41.7446 13.3217 41.6325 13.0676 41.5152 12.9089C41.3231 12.6389 41.083 12.4325 40.8003 12.2843C40.5175 12.1414 40.2027 12.0673 39.856 12.0673C39.0664 12.0673 38.4635 12.3902 38.0421 13.0306C37.7273 13.5069 37.5672 14.2585 37.5672 15.28C37.5672 16.545 37.754 17.413 38.1381 17.8841C38.5169 18.3552 39.0504 18.588 39.7333 18.588C40.4161 18.588 40.9016 18.3975 41.2431 18.0164C41.5845 17.6353 41.8299 17.0849 41.9846 16.3651L41.974 16.3598Z" fill="white"/>
<path d="M47.2189 20.2083C46.2266 19.372 45.7305 18.2764 45.7305 16.9161C45.7305 15.6511 46.1519 14.6137 46.9895 13.7934C47.8271 12.973 48.9635 12.5654 50.3933 12.5654C52.0258 12.5654 53.2582 13.0471 54.0958 14.0051C54.768 14.7778 55.1041 15.7305 55.1041 16.8685C55.1041 18.1441 54.688 19.1867 53.8557 19.9965C53.0235 20.8116 51.8711 21.2139 50.404 21.2139C49.0915 21.2139 48.0352 20.8751 47.2243 20.203L47.2189 20.2083ZM48.8621 16.9108C48.8621 17.6465 49.0115 18.197 49.3049 18.5463C49.5984 18.9009 49.9718 19.0756 50.4146 19.0756C50.8574 19.0756 51.2362 18.9009 51.5243 18.5516C51.8124 18.2023 51.9565 17.6465 51.9565 16.8738C51.9565 16.1592 51.8124 15.6247 51.519 15.2701C51.2256 14.9207 50.8681 14.7461 50.436 14.7461C49.9825 14.7461 49.6037 14.926 49.3049 15.2806C49.0062 15.6353 48.8568 16.1804 48.8568 16.9055L48.8621 16.9108Z" fill="white"/>
<path d="M59.73 12.0305C59.7033 12.1469 59.6926 12.3851 59.6926 12.7556H61.1811V15.0792H59.6926V21.0336H56.5609V15.0792H55.3926V12.7556H56.5609V12.3798C56.5609 12.0411 56.5983 11.6706 56.6677 11.2631C56.737 10.8555 56.8757 10.5273 57.0731 10.268C57.2705 10.0087 57.5479 9.80223 57.9 9.64345C58.2575 9.48467 58.775 9.40527 59.4632 9.40527C60.0127 9.40527 60.8076 9.46879 61.8533 9.60111L61.5065 11.5171C61.1331 11.4536 60.829 11.4218 60.5996 11.4218C60.3168 11.4218 60.1141 11.4695 59.9914 11.5647C59.8687 11.66 59.7833 11.8135 59.73 12.0199V12.0305Z" fill="white"/>
<path d="M65.8491 12.0305C65.8224 12.1469 65.8118 12.3851 65.8118 12.7556H67.3002V15.0792H65.8118V21.0336H62.6801V15.0792H61.5117V12.7556H62.6801V12.3798C62.6801 12.0411 62.7174 11.6706 62.7868 11.2631C62.8561 10.8555 62.9949 10.5273 63.1923 10.268C63.3897 10.0087 63.6671 9.80223 64.0192 9.64345C64.3766 9.48467 64.8941 9.40527 65.5824 9.40527C66.1319 9.40527 66.9268 9.46879 67.9724 9.60111L67.6257 11.5171C67.2522 11.4536 66.9481 11.4218 66.7187 11.4218C66.436 11.4218 66.2332 11.4695 66.1105 11.5647C65.9878 11.66 65.9025 11.8135 65.8491 12.0199V12.0305Z" fill="white"/>
<path d="M76.8443 17.6836H70.5756C70.6343 18.1917 70.7677 18.5728 70.9811 18.8215C71.2852 19.1814 71.68 19.3614 72.1655 19.3614C72.4749 19.3614 72.763 19.282 73.0404 19.1285C73.2111 19.028 73.3925 18.8533 73.5846 18.6045L76.6629 18.8903C76.1934 19.7213 75.6226 20.3194 74.9557 20.6793C74.2888 21.0392 73.3338 21.2192 72.0908 21.2192C71.0078 21.2192 70.1595 21.0657 69.5406 20.7534C68.9218 20.4464 68.4096 19.9542 67.9988 19.282C67.5934 18.6098 67.3906 17.8159 67.3906 16.9108C67.3906 15.6194 67.8014 14.5714 68.6177 13.7669C69.4339 12.9677 70.5596 12.5654 72.0001 12.5654C73.1685 12.5654 74.0914 12.7454 74.7636 13.1053C75.4412 13.4652 75.9533 13.9839 76.3055 14.6667C76.6576 15.3494 76.8336 16.2333 76.8336 17.3237V17.6836H76.8443ZM73.6646 16.1645C73.6006 15.5506 73.4406 15.1113 73.1791 14.8466C72.9177 14.582 72.5709 14.4497 72.1388 14.4497C71.6426 14.4497 71.2479 14.6508 70.9491 15.0478C70.757 15.2965 70.6397 15.667 70.5863 16.1645H73.6646Z" fill="white"/>
<path d="M86.9439 17.6836H80.6752C80.7339 18.1917 80.8673 18.5728 81.0807 18.8215C81.3848 19.1814 81.7743 19.3614 82.2651 19.3614C82.5745 19.3614 82.8626 19.282 83.14 19.1285C83.3108 19.028 83.4921 18.8533 83.6842 18.6045L86.7625 18.8903C86.293 19.7213 85.7222 20.3194 85.0553 20.6793C84.3884 21.0392 83.4335 21.2192 82.1904 21.2192C81.1074 21.2192 80.2591 21.0657 79.6403 20.7534C79.0214 20.4464 78.5092 19.9542 78.0984 19.282C77.693 18.6098 77.4902 17.8159 77.4902 16.9108C77.4902 15.6194 77.901 14.5714 78.7173 13.7669C79.5336 12.9677 80.6592 12.5654 82.0997 12.5654C83.2681 12.5654 84.191 12.7454 84.8633 13.1053C85.5408 13.4652 86.053 13.9839 86.4051 14.6667C86.7572 15.3494 86.9332 16.2333 86.9332 17.3237V17.6836H86.9439ZM83.7642 16.1645C83.7002 15.5506 83.5402 15.1113 83.2787 14.8466C83.0173 14.582 82.6706 14.4497 82.2384 14.4497C81.7423 14.4497 81.3475 14.6508 81.0487 15.0478C80.862 15.2965 80.7393 15.667 80.6859 16.1645H83.7642Z" fill="white"/>
<path d="M100.926 16.3598L103.977 17.2966C103.775 18.1646 103.449 18.8897 103.012 19.4719C102.574 20.0542 102.025 20.4935 101.374 20.7899C100.723 21.0863 99.8907 21.2345 98.8824 21.2345C97.6606 21.2345 96.6576 21.0545 95.8841 20.6946C95.1105 20.3347 94.4383 19.6995 93.8781 18.7892C93.3126 17.8788 93.0352 16.7197 93.0352 15.3012C93.0352 13.4117 93.5313 11.9562 94.5236 10.9452C95.516 9.92901 96.9137 9.4209 98.7276 9.4209C100.147 9.4209 101.262 9.712 102.073 10.2942C102.884 10.8764 103.486 11.7709 103.881 12.9777L100.808 13.671C100.702 13.3217 100.59 13.0676 100.472 12.9089C100.28 12.6389 100.04 12.4325 99.7573 12.2843C99.4745 12.1414 99.1598 12.0673 98.813 12.0673C98.0234 12.0673 97.4206 12.3902 96.9991 13.0306C96.679 13.5069 96.5243 14.2585 96.5243 15.28C96.5243 16.545 96.711 17.413 97.0951 17.8841C97.4739 18.3552 98.0074 18.588 98.6903 18.588C99.3732 18.588 99.8587 18.3975 100.2 18.0164C100.542 17.6353 100.787 17.0849 100.942 16.3651L100.926 16.3598Z" fill="white"/>
<path d="M113.66 21.0333H110.742V19.6942C110.305 20.2446 109.867 20.6363 109.424 20.8692C108.982 21.1021 108.437 21.2185 107.792 21.2185C106.933 21.2185 106.255 20.9592 105.77 20.4352C105.279 19.9112 105.039 19.1067 105.039 18.0216V12.75H108.181V17.3018C108.181 17.8205 108.277 18.191 108.464 18.408C108.651 18.625 108.918 18.7362 109.264 18.7362C109.638 18.7362 109.942 18.5933 110.182 18.3022C110.422 18.0111 110.539 17.4871 110.539 16.7355V12.75H113.666V21.028L113.66 21.0333Z" fill="white"/>
<path d="M115.181 9.60686H118.339V13.5659C118.649 13.2324 119.006 12.9837 119.401 12.8196C119.796 12.6555 120.239 12.5708 120.719 12.5708C121.711 12.5708 122.533 12.9307 123.184 13.6559C123.835 14.381 124.16 15.4237 124.16 16.7786C124.16 17.6837 124.011 18.4776 123.712 19.1657C123.413 19.8537 123.002 20.3671 122.479 20.7112C121.957 21.0499 121.37 21.2193 120.73 21.2193C120.18 21.2193 119.679 21.0976 119.225 20.8594C118.884 20.6741 118.51 20.3195 118.105 19.8061V21.0287H115.176V9.60156L115.181 9.60686ZM118.313 16.8739C118.313 17.5884 118.446 18.1018 118.708 18.4194C118.969 18.737 119.305 18.901 119.711 18.901C120.084 18.901 120.399 18.7422 120.65 18.43C120.9 18.1177 121.028 17.5884 121.028 16.8421C121.028 16.1858 120.906 15.7042 120.655 15.4025C120.404 15.0955 120.105 14.942 119.753 14.942C119.326 14.942 118.98 15.1008 118.713 15.4237C118.446 15.7412 118.307 16.2282 118.307 16.8792L118.313 16.8739Z" fill="white"/>
<path d="M134.319 17.6836H128.05C128.109 18.1917 128.242 18.5728 128.456 18.8215C128.76 19.1814 129.149 19.3614 129.64 19.3614C129.95 19.3614 130.238 19.282 130.515 19.1285C130.686 19.028 130.867 18.8533 131.059 18.6045L134.138 18.8903C133.668 19.7213 133.097 20.3194 132.43 20.6793C131.763 21.0392 130.808 21.2192 129.565 21.2192C128.482 21.2192 127.634 21.0657 127.015 20.7534C126.396 20.4464 125.884 19.9542 125.473 19.282C125.068 18.6098 124.865 17.8159 124.865 16.9108C124.865 15.6194 125.276 14.5714 126.092 13.7669C126.909 12.9677 128.04 12.5654 129.475 12.5654C130.643 12.5654 131.566 12.7454 132.238 13.1053C132.91 13.4652 133.428 13.9839 133.78 14.6667C134.132 15.3494 134.308 16.2333 134.308 17.3237V17.6836H134.319ZM131.139 16.1645C131.081 15.5506 130.915 15.1113 130.654 14.8466C130.392 14.582 130.046 14.4497 129.613 14.4497C129.117 14.4497 128.722 14.6508 128.424 15.0478C128.237 15.2965 128.114 15.667 128.061 16.1645H131.139Z" fill="white"/>
<path d="M14.5794 14.243C14.5794 14.243 15.0755 14.8252 16.0305 14.513L29.0213 7.28298C29.0213 7.28298 29.4748 6.83309 29.112 6.52081L23.3128 0.185318C23.3128 0.185318 22.8593 -0.0369796 22.2725 0.00536285L7.11032 1.97958C7.11032 1.97958 5.84059 2.15954 6.43277 3.23927L14.5794 14.243Z" fill="white"/>
<path d="M0.318359 8.80762C0.318359 8.80762 0.499702 7.59557 1.67871 8.17773L13.1328 14.418L13.1279 14.4229C13.1402 14.4265 15.1182 15.0135 15.1182 17.4775V30.1855C15.1157 30.2093 14.9729 31.5281 13.7568 30.7676L2.30859 23.4473C2.30859 23.4473 0.766438 22.5953 0.814453 19.9912L0.318359 8.80762ZM10.9561 17.6201C11.0773 16.5165 10.1727 16.9687 10.1514 16.9795C8.10969 17.8949 7.10088 19.7937 7.08887 19.8164C6.28328 20.8961 6.84863 21.1768 6.84863 21.1768C7.92093 21.3461 8.74203 20.9593 9.36621 20.3877C9.27018 20.7264 9.19112 21.1084 9.14844 21.5371C9.14657 21.5671 9.0365 23.4201 10.3965 23.9766C10.4038 23.9799 11.0801 24.2899 11.2021 23.5371C11.1929 23.5099 10.2032 20.5715 12.21 18.9014V18.8955C12.21 18.8955 12.6962 18.536 12.8936 18.2979C12.8936 18.2979 13.0955 17.7363 12.4873 17.7363C12.4661 17.7356 11.5705 17.7072 10.7061 18.3398C10.8795 17.9228 10.9539 17.6288 10.9561 17.6201ZM13.3789 18.6152C12.8134 18.4565 12.4502 19.0176 12.4502 19.0176C10.9193 20.579 11.5645 23.2148 11.5645 23.2148C12.5728 24.3368 13.2988 22.4521 13.2988 22.4521C14.2565 19.8325 13.3929 18.6343 13.3789 18.6152ZM4.27148 17.2549C4.27148 17.2549 4.31454 16.6941 3.8291 16.9375C3.8291 16.9375 1.52995 17.7788 2.4209 21.2139C2.42544 21.2293 2.83625 22.6106 4.67676 22.4951C4.67676 22.4951 5.11962 22.3355 4.75684 21.9756C4.72741 21.9559 3.31092 20.9953 3.74902 18.8164C3.74902 18.8164 4.19138 17.5779 4.27148 17.2549ZM10.1953 16.6523C10.7892 15.6225 8.87567 15.8931 8.86523 15.8945C7.14218 16.2597 6.33128 17.3711 5.99512 18.001C5.90451 17.8106 5.80321 17.615 5.68066 17.4141C5.68066 17.4141 5.15745 16.6146 4.55469 17.6514C4.55469 17.6514 3.34392 19.6526 4.59766 21.2881C4.6149 21.3114 5.56899 22.5926 6.25098 21.166C6.25574 21.1582 6.49139 20.7672 6.50195 20.0547C7.81577 17.329 10.0923 16.6805 10.1953 16.6523ZM10.1953 16.6523C10.1946 16.6536 10.1941 16.655 10.1934 16.6562L10.1992 16.6514C10.1992 16.6514 10.1977 16.6517 10.1953 16.6523Z" fill="white"/>
<path d="M29.4268 8.17773C30.6057 7.59567 30.7871 8.80762 30.7871 8.80762L30.291 19.9912C30.339 22.5951 28.7969 23.4473 28.7969 23.4473L17.3428 30.7676C16.1158 31.535 15.9824 30.1846 15.9824 30.1846V17.4766C15.9826 15.0052 17.9727 14.4229 17.9727 14.4229V14.418L29.4268 8.17773ZM17.5078 27.1475C17.3692 27.1422 17.2199 27.1892 17.0547 27.2949C16.8413 27.4272 16.718 27.5917 16.6807 27.7822C16.6434 27.9727 16.6919 28.1795 16.8359 28.3965C16.9426 28.5604 17.0601 28.6709 17.1934 28.7344C17.3266 28.7926 17.4491 28.8195 17.5664 28.8037C17.6784 28.7878 17.8125 28.7345 17.9512 28.6445C18.0683 28.5705 18.1537 28.4967 18.207 28.4121C18.2604 28.3274 18.2925 28.2373 18.2979 28.1367C18.3032 28.0362 18.2868 27.9299 18.2441 27.8135L17.8223 27.9307H17.833C17.8703 28.0259 17.8817 28.1051 17.8711 28.1738C17.8604 28.2426 17.812 28.301 17.7373 28.3486C17.6628 28.4014 17.5828 28.412 17.5029 28.3857C17.4229 28.3593 17.3372 28.2742 17.2412 28.126C17.1667 28.0045 17.129 27.9094 17.1289 27.8301C17.1289 27.7242 17.1769 27.6442 17.2676 27.5859C17.3049 27.5648 17.3479 27.5439 17.3906 27.5439C17.4333 27.5439 17.4759 27.5496 17.5186 27.5654C17.5452 27.576 17.577 27.5972 17.6143 27.6289L17.9189 27.3213C17.7803 27.2102 17.6465 27.1528 17.5078 27.1475ZM19.0391 26.7656C18.8737 26.7128 18.6925 26.7504 18.5059 26.8721C18.3405 26.9779 18.2444 27.1049 18.207 27.2637C18.1751 27.4224 18.2019 27.5706 18.2979 27.7188C18.3992 27.8774 18.5379 27.9671 18.7139 27.9883C18.8578 28.0094 19.007 27.9672 19.1562 27.8721C19.3215 27.761 19.4235 27.6289 19.4609 27.4756C19.4983 27.3168 19.4661 27.1677 19.3701 27.0195C19.2848 26.8926 19.1724 26.8079 19.0391 26.7656ZM18.8418 27.0938C18.9005 27.1149 18.9593 27.1634 19.0127 27.248C19.0712 27.3378 19.0976 27.4122 19.0869 27.4756C19.0762 27.5389 19.0493 27.5865 18.9961 27.6182C18.9482 27.6498 18.8896 27.6607 18.8311 27.6396C18.767 27.6238 18.7086 27.57 18.6553 27.4854V27.4805C18.6019 27.3958 18.5806 27.3213 18.5859 27.2578C18.5914 27.1945 18.6235 27.1469 18.6768 27.1152C18.7247 27.0836 18.7832 27.0726 18.8418 27.0938ZM19.6045 25.6865C19.4766 25.75 19.3804 25.7975 19.3164 25.8398C19.2418 25.8927 19.1829 25.9401 19.1562 25.9824C19.1296 26.0248 19.1084 26.0729 19.1084 26.1152C19.1032 26.1575 19.1135 26.2051 19.1348 26.2578C19.1561 26.3107 19.1775 26.3585 19.2041 26.3955L19.2314 26.4375L19.0977 26.5225L19.2734 26.792L19.4072 26.708L19.8555 27.3955L20.2178 27.1631L19.7695 26.4746L19.9404 26.3633L19.7646 26.0938L19.5938 26.2051C19.5671 26.1627 19.5459 26.1201 19.5459 26.1201L19.541 26.1309C19.5357 26.0991 19.5357 26.0778 19.541 26.0566C19.5464 26.0355 19.5677 26.0143 19.5996 25.9932C19.6262 25.9721 19.6631 25.9556 19.7109 25.9346L19.6045 25.6865ZM20.3086 25.2363C20.1807 25.2998 20.0845 25.3473 20.0205 25.3896C19.946 25.4425 19.8871 25.4899 19.8604 25.5322C19.8337 25.5746 19.8125 25.6227 19.8125 25.665C19.8072 25.7073 19.8185 25.7547 19.8398 25.8076C19.8612 25.8605 19.8825 25.9083 19.9092 25.9453L19.9355 25.9883L19.8018 26.0723L19.9785 26.3428L20.1113 26.2578L20.5596 26.9463L20.9229 26.7129L20.4746 26.0254L20.6445 25.9141L20.4688 25.6436L20.2979 25.7549C20.2712 25.7126 20.25 25.6699 20.25 25.6699L20.2393 25.6807C20.234 25.6491 20.2339 25.6276 20.2393 25.6064C20.2447 25.5854 20.266 25.564 20.2979 25.543C20.3245 25.5218 20.3622 25.5065 20.4102 25.4854L20.3086 25.2363ZM21.3545 25.1309C21.2531 25.1415 21.1304 25.1888 20.9971 25.2734C20.8317 25.3793 20.7303 25.5067 20.6982 25.6602C20.6664 25.8135 20.698 25.9672 20.7939 26.1152C20.8633 26.2211 20.9489 26.2951 21.0449 26.3428C21.1409 26.3904 21.237 26.4109 21.333 26.4004C21.429 26.3951 21.5414 26.3479 21.6641 26.2686C21.8081 26.1733 21.9041 26.0831 21.9521 25.9932C22.0054 25.9033 22.0262 25.7923 22.0156 25.6602L21.6377 25.8555C21.6377 25.8977 21.6269 25.9349 21.6162 25.9561C21.5949 25.9931 21.5676 26.0247 21.5303 26.0459C21.477 26.0829 21.4185 26.0934 21.3545 26.0723C21.3118 26.0617 21.2634 26.0246 21.2207 25.9717L21.9414 25.5117L21.9355 25.5059L21.9092 25.4639C21.8238 25.3369 21.7381 25.2472 21.6475 25.1943C21.5568 25.1468 21.4611 25.1203 21.3545 25.1309ZM21.3066 25.4531C21.3545 25.4637 21.4077 25.5008 21.4609 25.5693H21.4668L21.1094 25.7969C21.0775 25.7387 21.0664 25.6858 21.0664 25.6436C21.0718 25.5749 21.0987 25.5223 21.1572 25.4854C21.2052 25.4536 21.2586 25.4425 21.3066 25.4531ZM22.5176 24.3838C22.4162 24.3944 22.2935 24.4427 22.1602 24.5273C21.9949 24.6331 21.8934 24.7598 21.8613 24.9131C21.8294 25.0664 21.8612 25.2201 21.957 25.3682C22.0264 25.474 22.112 25.549 22.208 25.5967C22.304 25.6443 22.4001 25.6649 22.4961 25.6543C22.5921 25.649 22.7045 25.6018 22.8271 25.5225C22.9712 25.4272 23.0672 25.337 23.1152 25.2471C23.1686 25.1571 23.1894 25.0454 23.1787 24.9131L22.8008 25.1094C22.8008 25.1517 22.79 25.1835 22.7793 25.21C22.758 25.247 22.7307 25.2786 22.6934 25.2998C22.6401 25.3368 22.5815 25.3473 22.5176 25.3262C22.4749 25.3156 22.4265 25.2785 22.3838 25.2256L23.1045 24.7656L23.0986 24.7598L23.0723 24.7178C22.9869 24.5907 22.9012 24.5002 22.8105 24.4473C22.72 24.3998 22.6241 24.3732 22.5176 24.3838ZM22.4697 24.707C22.5176 24.7177 22.5708 24.7547 22.624 24.8232H22.6299L22.2725 25.0508C22.2405 24.9926 22.2295 24.9398 22.2295 24.8975C22.2348 24.8287 22.2617 24.7763 22.3203 24.7393C22.3683 24.7075 22.4217 24.6964 22.4697 24.707ZM24.3047 22.7959C24.1661 22.7906 24.0168 22.8386 23.8516 22.9443C23.6382 23.0767 23.5149 23.2411 23.4775 23.4316C23.4403 23.6221 23.4888 23.829 23.6328 24.0459C23.7394 24.2097 23.857 24.3203 23.9902 24.3838C24.1235 24.442 24.246 24.4689 24.3633 24.4531C24.4753 24.4372 24.6093 24.3839 24.748 24.2939C24.8652 24.22 24.9506 24.1461 25.0039 24.0615C25.0572 23.9769 25.0894 23.8867 25.0947 23.7861C25.1001 23.6856 25.0837 23.5793 25.041 23.4629L24.6191 23.5801H24.6299C24.6671 23.6752 24.6786 23.7545 24.668 23.8232C24.6573 23.892 24.6088 23.9504 24.5342 23.998C24.4597 24.0508 24.3796 24.0614 24.2998 24.0352C24.2198 24.0087 24.1341 23.9236 24.0381 23.7754C23.9635 23.6539 23.9259 23.5588 23.9258 23.4795C23.9258 23.3737 23.9738 23.2936 24.0645 23.2354C24.1018 23.2142 24.1448 23.1934 24.1875 23.1934C24.2302 23.1934 24.2728 23.199 24.3154 23.2148C24.3421 23.2254 24.3739 23.2466 24.4111 23.2783L24.7158 22.9707C24.5771 22.8596 24.4434 22.8012 24.3047 22.7959ZM25.4629 22.4521L25.7617 22.9131C25.8149 22.9975 25.8412 23.0663 25.8359 23.1191C25.8306 23.1666 25.8041 23.2089 25.7617 23.2354C25.719 23.2565 25.6809 23.2674 25.6436 23.2568C25.6063 23.2462 25.5636 23.2093 25.5264 23.1514L25.1855 22.627L24.8223 22.8594L25.2168 23.4688C25.2967 23.5903 25.3876 23.6639 25.4834 23.6904C25.5794 23.7169 25.676 23.6963 25.7773 23.6328C25.852 23.5852 25.9055 23.5319 25.9375 23.4736C25.9694 23.4155 25.9903 23.3362 26.001 23.2412L26.1025 23.3945L26.4385 23.1777L26.4443 23.1719L25.8252 22.2197L25.4629 22.4521ZM25.7559 21.748L25.751 21.7432L26.6094 23.0605L26.9453 22.8438L26.8545 22.7012C26.9399 22.7276 27.0101 22.7383 27.0635 22.7383C27.138 22.7329 27.2017 22.7112 27.2656 22.6689C27.3401 22.6267 27.3933 22.5635 27.4307 22.4844C27.468 22.405 27.474 22.3144 27.458 22.2139C27.442 22.1134 27.3993 22.0129 27.3301 21.9072C27.2288 21.7539 27.1113 21.6582 26.9834 21.6211C26.8501 21.5894 26.7325 21.6057 26.6152 21.6797C26.5619 21.7167 26.5135 21.759 26.4814 21.8066C26.4495 21.8543 26.4277 21.9072 26.417 21.9707L26.1191 21.5156L25.7559 21.748ZM26.6846 22.0293C26.7272 22.0029 26.7699 21.9968 26.8232 22.0127C26.8712 22.0286 26.9247 22.0764 26.9727 22.1504C27.026 22.2351 27.0522 22.3094 27.0469 22.3623C27.0415 22.4152 27.0153 22.4579 26.9727 22.4844C26.93 22.5161 26.8765 22.5207 26.8232 22.5049C26.77 22.489 26.7164 22.4419 26.6631 22.3574C26.6151 22.2833 26.5933 22.2194 26.5986 22.1611C26.6093 22.1029 26.6366 22.0611 26.6846 22.0293ZM27.9863 20.8857C27.8851 20.8963 27.7621 20.9438 27.6289 21.0283C27.4635 21.1342 27.3621 21.2615 27.3301 21.415C27.2981 21.5685 27.3298 21.7219 27.4258 21.8701C27.4951 21.976 27.5807 22.05 27.6768 22.0977C27.7727 22.1452 27.8689 22.1668 27.9648 22.1562C28.0608 22.1509 28.1724 22.1027 28.2949 22.0234C28.439 21.9282 28.535 21.838 28.583 21.748C28.6363 21.6581 28.6581 21.5473 28.6475 21.415L28.2686 21.6104C28.2686 21.6526 28.2577 21.6897 28.2471 21.7109C28.2258 21.7479 28.1993 21.7796 28.1621 21.8008C28.1089 21.8377 28.0502 21.8491 27.9863 21.8281C27.9437 21.8176 27.8952 21.7804 27.8525 21.7275L28.5732 21.2666L28.5674 21.2617L28.541 21.2188C28.4557 21.0918 28.37 21.0021 28.2793 20.9492C28.1887 20.9016 28.0929 20.8753 27.9863 20.8857ZM27.9375 21.208C27.9855 21.2186 28.0394 21.2617 28.0928 21.3252H28.0977L27.7402 21.5527C27.7083 21.4947 27.6983 21.4417 27.6982 21.3994C27.7036 21.3307 27.7296 21.2773 27.7881 21.2402C27.8359 21.2086 27.8896 21.1976 27.9375 21.208Z" fill="white"/>
</g>
<defs>
<clipPath id="clip0_255_8117">
<rect width="134" height="31" fill="white" transform="translate(0.318359)"/>
</clipPath>
</defs>
</svg>
