<svg width="164" height="67" viewBox="0 0 164 67" fill="none" xmlns="http://www.w3.org/2000/svg">
<path d="M80.7854 17.2674C80.7854 17.2674 81.4042 17.9623 82.5952 17.5896L98.7972 8.96118C98.7972 8.96118 99.3628 8.42428 98.9104 8.0516L91.6777 0.490694C91.6777 0.490694 91.1121 0.225399 90.3802 0.275931L71.47 2.632C71.47 2.632 69.8864 2.84677 70.625 4.13534L80.7854 17.2674Z" fill="#35A53C"/>
<path d="M63 10.7803C63 10.7803 63.2262 9.33399 64.6963 10.0283L78.9824 17.4756L78.9756 17.4824C78.9756 17.4824 81.458 18.1771 81.458 21.127V36.293C81.4558 36.3135 81.2812 37.8973 79.7607 36.9873L65.4814 28.252C65.4562 28.2384 63.5597 27.214 63.6191 24.127L63 10.7803ZM76.2676 21.2969C76.4204 19.9645 75.2627 20.5332 75.2627 20.5332C72.7013 21.6324 71.4434 23.9189 71.4434 23.9189C70.4391 25.2072 71.1445 25.542 71.1445 25.542C72.4819 25.7441 73.5067 25.2828 74.2852 24.6006C74.1654 25.0048 74.0649 25.46 74.0117 25.9717C74.01 25.9976 73.8693 28.2181 75.5693 28.8838C75.5861 28.8911 76.4226 29.2534 76.5742 28.3594C76.5742 28.3594 75.3165 24.8286 77.8311 22.8262V22.8193C77.8311 22.8193 78.4374 22.3897 78.6836 22.1055C78.6903 22.0873 78.9254 21.4367 78.1777 21.4365C78.1777 21.4365 77.0463 21.3919 75.9551 22.1562C76.1746 21.6509 76.2676 21.2969 76.2676 21.2969ZM79.2891 22.4844C78.5838 22.2949 78.1309 22.9648 78.1309 22.9648C76.2298 24.8199 77.0193 27.9457 77.0264 27.9736C78.2753 29.3035 79.1761 27.0949 79.1885 27.0645C80.3928 23.9125 79.2891 22.4844 79.2891 22.4844ZM67.9307 20.8613C67.9313 20.8534 67.9798 20.1936 67.3779 20.4824C67.3402 20.4958 64.5184 21.514 65.6221 25.5859C65.6221 25.5859 66.1277 27.2542 68.4365 27.1152C68.4425 27.1132 68.9858 26.9231 68.5361 26.4961C68.5361 26.4961 66.7261 25.3523 67.2783 22.7246C67.2828 22.7126 67.8313 21.2451 67.9307 20.8613ZM75.3184 20.1426C76.0615 18.9099 73.6592 19.2383 73.6592 19.2383C71.5104 19.6742 70.4993 21.0003 70.0801 21.752C69.967 21.5246 69.8405 21.2908 69.6875 21.0508C69.6875 21.0508 69.0351 20.0971 68.2832 21.335C68.2832 21.335 66.7733 23.723 68.3369 25.6748C68.3567 25.7004 69.5482 27.2331 70.3994 25.5293C70.4049 25.5206 70.6987 25.0539 70.7119 24.2031C72.3499 20.9514 75.1879 20.1767 75.3184 20.1426ZM75.3184 20.1426C75.3175 20.1441 75.3173 20.146 75.3164 20.1475L75.3232 20.1416C75.3232 20.1416 75.3215 20.1418 75.3184 20.1426Z" fill="#35A53C"/>
<path d="M99.3037 10.0283C100.774 9.33379 101 10.7803 101 10.7803L100.382 24.127C100.441 27.2233 98.5325 28.2445 98.5186 28.252L84.2324 36.9873C82.7159 37.8949 82.5392 36.3214 82.5361 36.293V21.127C82.5361 18.1771 85.0176 17.4814 85.0176 17.4814V17.4756L99.3037 10.0283ZM84.4385 32.667C84.2656 32.6607 84.0792 32.7175 83.873 32.8438C83.607 33.0016 83.4538 33.1975 83.4072 33.4248C83.3607 33.6521 83.4211 33.8983 83.6006 34.1572C83.7336 34.3529 83.8797 34.4857 84.0459 34.5615C84.2121 34.631 84.3654 34.6634 84.5117 34.6445C84.6514 34.6256 84.8182 34.5615 84.9912 34.4541C85.1374 34.3657 85.2441 34.2777 85.3105 34.1768C85.377 34.0758 85.4171 33.9685 85.4238 33.8486C85.4305 33.7287 85.4106 33.6018 85.3574 33.4629L84.8311 33.6016H84.8447C84.8913 33.7153 84.9049 33.8105 84.8916 33.8926C84.8783 33.9747 84.8177 34.0438 84.7246 34.1006C84.6315 34.1637 84.5314 34.1771 84.4316 34.1455C84.332 34.1139 84.226 34.0124 84.1064 33.8359C84.0133 33.6907 83.9668 33.5762 83.9668 33.4814C83.9669 33.3553 84.0267 33.2608 84.1396 33.1914C84.1861 33.1662 84.239 33.1407 84.292 33.1406C84.3452 33.1406 84.3989 33.1471 84.4521 33.166C84.4854 33.1787 84.5257 33.2043 84.5723 33.2422L84.9512 32.875C84.7782 32.7424 84.6114 32.6733 84.4385 32.667ZM86.3486 32.2119C86.1424 32.1487 85.9155 32.1936 85.6826 32.3389C85.4767 32.4651 85.3571 32.6164 85.3105 32.8057C85.2706 32.9952 85.3041 33.1727 85.4238 33.3496C85.5502 33.5388 85.7231 33.6456 85.9424 33.6709C86.122 33.6962 86.3088 33.6459 86.4951 33.5322C86.7012 33.3996 86.8275 33.2417 86.874 33.0586C86.9206 32.8691 86.8805 32.6925 86.7607 32.5156C86.6543 32.3641 86.5149 32.2625 86.3486 32.2119ZM86.1025 32.6035C86.1757 32.6288 86.249 32.6861 86.3154 32.7871C86.3885 32.8944 86.4215 32.9828 86.4082 33.0586C86.3949 33.1344 86.3615 33.1916 86.2949 33.2295C86.2351 33.2672 86.1619 33.2801 86.0889 33.2549C86.009 33.2359 85.9357 33.1724 85.8691 33.0713V33.0654C85.8026 32.9644 85.7766 32.8756 85.7832 32.7998C85.7898 32.7241 85.8291 32.6668 85.8955 32.6289C85.9554 32.591 86.0293 32.5782 86.1025 32.6035ZM87.0537 30.9238C86.8941 30.9996 86.7742 31.0559 86.6943 31.1064C86.6013 31.1695 86.5284 31.2269 86.4951 31.2773C86.4618 31.3279 86.4346 31.385 86.4346 31.4355C86.428 31.4859 86.4413 31.5426 86.4678 31.6055C86.4944 31.6686 86.5214 31.7263 86.5547 31.7705L86.5879 31.8203L86.4219 31.9219L86.6416 32.2441L86.8076 32.1426L87.3662 32.9639L87.8193 32.6855L87.2598 31.8652L87.4727 31.7324L87.2529 31.4102L87.04 31.543C87.0068 31.4924 86.9805 31.4414 86.9805 31.4414L86.9736 31.4541C86.967 31.4165 86.9671 31.3913 86.9736 31.3662C86.9803 31.341 87.007 31.3153 87.0469 31.29C87.0801 31.2648 87.1268 31.2459 87.1865 31.2207L87.0537 30.9238ZM87.9316 30.3867C87.7721 30.4625 87.6521 30.5198 87.5723 30.5703C87.4794 30.6333 87.4063 30.6898 87.373 30.7402C87.3398 30.7908 87.3135 30.8479 87.3135 30.8984C87.3068 30.949 87.3201 31.0062 87.3467 31.0693C87.3732 31.1323 87.3994 31.1893 87.4326 31.2334L87.4658 31.2832L87.2998 31.3848L87.5195 31.707L87.6855 31.6055L88.2451 32.4268L88.6973 32.1494L88.1387 31.3281L88.3516 31.1953L88.1318 30.873L87.9189 31.0059C87.8857 30.9553 87.8584 30.9043 87.8584 30.9043L87.8457 30.917C87.8391 30.8793 87.8391 30.8543 87.8457 30.8291C87.8524 30.8038 87.879 30.7782 87.9189 30.7529C87.9522 30.7278 87.9989 30.7088 88.0586 30.6836L87.9316 30.3867ZM89.2363 30.2607C89.1099 30.2734 88.9564 30.3296 88.79 30.4307C88.584 30.5569 88.458 30.7087 88.418 30.8916C88.378 31.0748 88.4173 31.2587 88.5371 31.4355C88.6236 31.5619 88.7308 31.6502 88.8506 31.707C88.9702 31.7638 89.0903 31.789 89.21 31.7764C89.3296 31.7699 89.4692 31.7128 89.6221 31.6182C89.8016 31.5045 89.9216 31.3974 89.9814 31.29C90.048 31.1827 90.0748 31.0495 90.0615 30.8916L89.5889 31.126C89.5888 31.1764 89.5758 31.2209 89.5625 31.2461C89.5359 31.2902 89.5025 31.3283 89.4561 31.3535C89.3896 31.3977 89.3161 31.41 89.2363 31.3848C89.1831 31.3721 89.1226 31.3278 89.0693 31.2646L89.9678 30.7148L89.9609 30.709L89.9277 30.6582C89.8214 30.5069 89.7155 30.3991 89.6025 30.3359C89.4895 30.2791 89.3693 30.2481 89.2363 30.2607ZM89.1758 30.6455C89.2357 30.6581 89.3026 30.703 89.3691 30.7852H89.376L88.9297 31.0566C88.8898 30.9872 88.877 30.9236 88.877 30.873C88.8836 30.791 88.9171 30.7278 88.9902 30.6836C89.0499 30.6459 89.1161 30.6331 89.1758 30.6455ZM90.6865 29.3701C90.5602 29.3828 90.4073 29.4392 90.2412 29.54C90.0351 29.6663 89.9082 29.818 89.8682 30.001C89.8282 30.1842 89.8685 30.3681 89.9883 30.5449C90.0747 30.6711 90.1811 30.7596 90.3008 30.8164C90.4205 30.8732 90.5404 30.8984 90.6602 30.8857C90.7799 30.8794 90.9193 30.8222 91.0723 30.7275C91.2518 30.6139 91.3717 30.5067 91.4316 30.3994C91.4982 30.292 91.525 30.1589 91.5117 30.001L91.0391 30.2354C91.039 30.2858 91.026 30.3239 91.0127 30.3555C90.9861 30.3996 90.9527 30.4377 90.9062 30.4629C90.8398 30.507 90.7663 30.5194 90.6865 30.4941C90.6333 30.4815 90.5737 30.4371 90.5205 30.374L91.4189 29.8242L91.4121 29.8184L91.3789 29.7676C91.2724 29.616 91.1658 29.5085 91.0527 29.4453C90.9396 29.3885 90.8196 29.3575 90.6865 29.3701ZM90.627 29.7549C90.6867 29.7675 90.753 29.8118 90.8193 29.8936H90.8262L90.3809 30.166C90.3409 30.0965 90.3271 30.033 90.3271 29.9824C90.3338 29.9003 90.3673 29.8372 90.4404 29.793C90.5003 29.7551 90.5671 29.7423 90.627 29.7549ZM92.916 27.4746C92.7431 27.4683 92.5567 27.5252 92.3506 27.6514C92.0846 27.8092 91.9314 28.0052 91.8848 28.2324C91.8382 28.4598 91.8975 28.7068 92.0771 28.9658C92.2102 29.1616 92.3571 29.2943 92.5234 29.3701C92.6896 29.4395 92.843 29.4711 92.9893 29.4521C93.1288 29.4332 93.295 29.3699 93.4678 29.2627C93.6141 29.1743 93.7206 29.0854 93.7871 28.9844C93.8536 28.8834 93.8937 28.7762 93.9004 28.6562C93.907 28.5362 93.8872 28.4095 93.834 28.2705L93.3086 28.4092H93.3213C93.3679 28.5229 93.3815 28.6181 93.3682 28.7002C93.3549 28.7822 93.295 28.8514 93.2021 28.9082C93.1091 28.9713 93.0089 28.9846 92.9092 28.9531C92.8094 28.9216 92.7027 28.8203 92.583 28.6436C92.49 28.4985 92.4435 28.3847 92.4434 28.29C92.4434 28.1637 92.5031 28.0685 92.6162 27.999C92.6628 27.9738 92.7163 27.9482 92.7695 27.9482C92.8226 27.9483 92.8757 27.9548 92.9287 27.9736C92.962 27.9863 93.0023 28.0119 93.0488 28.0498L93.4277 27.6836C93.2548 27.551 93.0889 27.481 92.916 27.4746ZM94.3594 27.0645L94.7324 27.6133C94.799 27.7143 94.8318 27.7972 94.8252 27.8604C94.8185 27.917 94.7855 27.9675 94.7324 27.999C94.6792 28.0243 94.6325 28.037 94.5859 28.0244C94.5394 28.0118 94.486 27.9677 94.4395 27.8984L94.0137 27.2725L93.5615 27.5508L94.0537 28.2773C94.1533 28.4222 94.2662 28.5103 94.3857 28.542C94.5055 28.5736 94.6256 28.5484 94.752 28.4727C94.8451 28.4158 94.9122 28.3527 94.9521 28.2832C94.9919 28.2138 95.0179 28.1192 95.0312 28.0059L95.1582 28.1885L95.5771 27.9297L95.584 27.9229L94.8125 26.7861L94.3594 27.0645ZM94.7256 26.2246L94.7188 26.2178L95.79 27.791L96.209 27.5312L96.0967 27.3613C96.2028 27.3928 96.2891 27.4052 96.3555 27.4053C96.4486 27.399 96.5286 27.3737 96.6084 27.3232C96.7014 27.2728 96.7679 27.1971 96.8145 27.1025C96.861 27.0078 96.8676 26.9002 96.8477 26.7803C96.8277 26.6604 96.7748 26.5403 96.6885 26.4141C96.5621 26.2309 96.4156 26.1165 96.2559 26.0723C96.0896 26.0344 95.9431 26.0533 95.7969 26.1416C95.7303 26.1858 95.6708 26.2371 95.6309 26.2939C95.591 26.3507 95.5641 26.4136 95.5508 26.4893L95.1777 25.9463L94.7256 26.2246ZM95.8828 26.5586C95.936 26.527 95.9901 26.5211 96.0566 26.54C96.1164 26.5591 96.1825 26.616 96.2422 26.7041C96.3087 26.8052 96.3426 26.8939 96.3359 26.957C96.3292 27.0201 96.2954 27.071 96.2422 27.1025C96.1891 27.1401 96.1229 27.1458 96.0566 27.127C95.9901 27.108 95.923 27.0513 95.8564 26.9502C95.7967 26.8619 95.7697 26.7862 95.7764 26.7168C95.7897 26.6474 95.8231 26.5965 95.8828 26.5586ZM97.5068 25.1943C97.3804 25.207 97.2269 25.2642 97.0605 25.3652C96.8545 25.4915 96.7284 25.6431 96.6885 25.8262C96.6486 26.0094 96.6888 26.1923 96.8086 26.3691C96.8951 26.4955 97.0013 26.5838 97.1211 26.6406C97.2409 26.6975 97.3607 26.7236 97.4805 26.7109C97.6001 26.7046 97.7397 26.6474 97.8926 26.5527C98.072 26.4392 98.192 26.3319 98.252 26.2246C98.3185 26.1172 98.3453 25.9841 98.332 25.8262L97.8594 26.0596C97.8594 26.1099 97.8463 26.1544 97.833 26.1797C97.8064 26.2238 97.773 26.2618 97.7266 26.2871C97.6601 26.3313 97.5866 26.3445 97.5068 26.3193C97.4537 26.3067 97.394 26.2622 97.3408 26.1992L98.2383 25.6494L98.2324 25.6426L98.1992 25.5928C98.0928 25.4413 97.9861 25.3337 97.873 25.2705C97.7599 25.2137 97.6399 25.1817 97.5068 25.1943ZM97.4473 25.5801C97.507 25.5928 97.5733 25.6432 97.6396 25.7188H97.6465L97.2012 25.9902C97.1613 25.9209 97.1475 25.8581 97.1475 25.8076C97.1541 25.7255 97.1876 25.6624 97.2607 25.6182C97.3206 25.5803 97.3874 25.5674 97.4473 25.5801Z" fill="#35A53C"/>
<path d="M12.9923 58.7115L17.971 60.2527C17.6396 61.6807 17.1078 62.8737 16.3928 63.8315C15.6691 64.7893 14.7797 65.512 13.716 65.9997C12.6523 66.4873 11.2921 66.7311 9.64413 66.7311C7.64743 66.7311 6.00823 66.435 4.74394 65.8429C3.47966 65.2508 2.38104 64.2059 1.46552 62.7082C0.54129 61.2105 0.0878906 59.3036 0.0878906 56.97C0.0878906 53.8614 0.898777 51.4668 2.52055 49.8037C4.14232 48.1318 6.42674 47.2959 9.39127 47.2959C11.7106 47.2959 13.5329 47.7748 14.8582 48.7326C16.1835 49.6905 17.1688 51.162 17.814 53.1474L12.7918 54.288C12.6174 53.7133 12.4343 53.2954 12.2424 53.0342C11.9286 52.5901 11.5362 52.2505 11.0741 52.0067C10.612 51.7716 10.0975 51.6497 9.53078 51.6497C8.24034 51.6497 7.25507 52.1808 6.56625 53.2344C6.05182 54.0181 5.79024 55.2546 5.79024 56.9351C5.79024 59.0162 6.09542 60.4443 6.7232 61.2192C7.34226 61.9942 8.21418 62.3773 9.33024 62.3773C10.4463 62.3773 11.2397 62.0639 11.7978 61.4369C12.3558 60.81 12.7569 59.9044 13.0097 58.7202L12.9923 58.7115Z" fill="#26A12E"/>
<path d="M21.5635 65.0414C19.9417 63.6657 19.1309 61.8632 19.1309 59.6254C19.1309 57.5443 19.8197 55.8376 21.1886 54.4879C22.5575 53.1383 24.4147 52.4678 26.7514 52.4678C29.4195 52.4678 31.4336 53.2602 32.8026 54.8362C33.9012 56.1075 34.4505 57.6749 34.4505 59.547C34.4505 61.6455 33.7704 63.3609 32.4102 64.6931C31.05 66.0341 29.1666 66.6959 26.7689 66.6959C24.6239 66.6959 22.8975 66.1386 21.5722 65.0327L21.5635 65.0414ZM24.249 59.6167C24.249 60.827 24.4932 61.7326 24.9727 62.3073C25.4523 62.8907 26.0626 63.178 26.7863 63.178C27.51 63.178 28.1291 62.8907 28.5999 62.316C29.0707 61.7413 29.3062 60.827 29.3062 59.5557C29.3062 58.3802 29.0707 57.5007 28.5912 56.9173C28.1116 56.3426 27.5274 56.0553 26.8212 56.0553C26.0801 56.0553 25.461 56.3513 24.9727 56.9347C24.4844 57.5181 24.2403 58.415 24.2403 59.6079L24.249 59.6167Z" fill="#26A12E"/>
<path d="M42.0096 51.5885C41.966 51.78 41.9486 52.1719 41.9486 52.7814H44.3812V56.604H41.9486V66.4H36.8304V56.604H34.9209V52.7814H36.8304V52.1632C36.8304 51.6059 36.8914 50.9964 37.0048 50.3259C37.1181 49.6554 37.3448 49.1155 37.6674 48.6889C37.99 48.2622 38.4435 47.9226 39.0189 47.6614C39.6031 47.4001 40.4489 47.2695 41.5736 47.2695C42.4717 47.2695 43.7709 47.374 45.4798 47.5917L44.9131 50.7438C44.3028 50.6393 43.8058 50.5871 43.4308 50.5871C42.9687 50.5871 42.6374 50.6655 42.4368 50.8222C42.2363 50.9789 42.0968 51.2315 42.0096 51.571V51.5885Z" fill="#26A12E"/>
<path d="M52.0106 51.5885C51.967 51.78 51.9495 52.1719 51.9495 52.7814H54.3822V56.604H51.9495V66.4H46.8314V56.604H44.9219V52.7814H46.8314V52.1632C46.8314 51.6059 46.8924 50.9964 47.0058 50.3259C47.1191 49.6554 47.3458 49.1155 47.6684 48.6889C47.991 48.2622 48.4444 47.9226 49.0199 47.6614C49.6041 47.4001 50.4498 47.2695 51.5746 47.2695C52.4727 47.2695 53.7719 47.374 55.4808 47.5917L54.9141 50.7438C54.3037 50.6393 53.8067 50.5871 53.4318 50.5871C52.9697 50.5871 52.6384 50.6655 52.4378 50.8222C52.2373 50.9789 52.0978 51.2315 52.0106 51.571V51.5885Z" fill="#26A12E"/>
<path d="M69.9807 60.888H59.7356C59.8315 61.7239 60.0495 62.3508 60.3983 62.7601C60.8953 63.3522 61.5405 63.6482 62.334 63.6482C62.8397 63.6482 63.3105 63.5176 63.7639 63.2651C64.0429 63.0997 64.3394 62.8123 64.6533 62.4031L69.6842 62.8733C68.9169 64.2404 67.984 65.2243 66.8941 65.8164C65.8042 66.4085 64.2435 66.7046 62.2119 66.7046C60.4419 66.7046 59.0555 66.4521 58.0441 65.9383C57.0327 65.4333 56.1956 64.6235 55.5243 63.5176C54.8616 62.4118 54.5303 61.1056 54.5303 59.6167C54.5303 57.492 55.2017 55.7679 56.5357 54.4444C57.8697 53.1295 59.7095 52.4678 62.0637 52.4678C63.9732 52.4678 65.4816 52.7638 66.5802 53.3559C67.6875 53.9481 68.5246 54.8014 69.1 55.9247C69.6755 57.0479 69.9632 58.5021 69.9632 60.2958V60.888H69.9807ZM64.784 58.3889C64.6794 57.3788 64.4178 56.6561 63.9906 56.2207C63.5634 55.7853 62.9966 55.5677 62.2904 55.5677C61.4795 55.5677 60.8342 55.8985 60.346 56.5516C60.0321 56.9609 59.8403 57.5704 59.7531 58.3889H64.784Z" fill="#26A12E"/>
<path d="M86.4856 60.888H76.2405C76.3364 61.7239 76.5544 62.3508 76.9032 62.7601C77.4002 63.3522 78.0367 63.6482 78.8388 63.6482C79.3446 63.6482 79.8154 63.5176 80.2688 63.2651C80.5478 63.0997 80.8443 62.8123 81.1581 62.4031L86.1891 62.8733C85.4218 64.2404 84.4889 65.2243 83.399 65.8164C82.3091 66.4085 80.7484 66.7046 78.7168 66.7046C76.9468 66.7046 75.5604 66.4521 74.549 65.9383C73.5376 65.4333 72.7005 64.6235 72.0291 63.5176C71.3665 62.4118 71.0352 61.1056 71.0352 59.6167C71.0352 57.492 71.7065 55.7679 73.0406 54.4444C74.3746 53.1295 76.2144 52.4678 78.5685 52.4678C80.478 52.4678 81.9865 52.7638 83.0851 53.3559C84.1924 53.9481 85.0295 54.8014 85.6049 55.9247C86.1804 57.0479 86.4681 58.5021 86.4681 60.2958V60.888H86.4856ZM81.2889 58.3889C81.1843 57.3788 80.9227 56.6561 80.4955 56.2207C80.0682 55.7853 79.5015 55.5677 78.7952 55.5677C77.9844 55.5677 77.3391 55.8985 76.8509 56.5516C76.5457 56.9609 76.3452 57.5704 76.258 58.3889H81.2889Z" fill="#26A12E"/>
<path d="M109.339 58.7115L114.326 60.2527C113.995 61.6807 113.463 62.8737 112.748 63.8315C112.033 64.7893 111.135 65.512 110.071 65.9997C109.008 66.4873 107.648 66.7311 106 66.7311C104.003 66.7311 102.364 66.435 101.099 65.8429C99.8351 65.2508 98.7365 64.2059 97.821 62.7082C96.8968 61.2105 96.4434 59.3036 96.4434 56.97C96.4434 53.8614 97.2543 51.4668 98.876 49.8037C100.498 48.1318 102.782 47.2959 105.747 47.2959C108.066 47.2959 109.888 47.7748 111.214 48.7326C112.539 49.6905 113.524 51.162 114.169 53.1474L109.147 54.288C108.973 53.7133 108.79 53.2954 108.598 53.0342C108.284 52.5901 107.892 52.2505 107.43 52.0067C106.967 51.7716 106.453 51.6497 105.886 51.6497C104.596 51.6497 103.611 52.1808 102.922 53.2344C102.399 54.0181 102.146 55.2546 102.146 56.9351C102.146 59.0162 102.451 60.4443 103.079 61.2192C103.698 61.9942 104.57 62.3773 105.686 62.3773C106.802 62.3773 107.595 62.0639 108.153 61.4369C108.711 60.81 109.112 59.9044 109.365 58.7202L109.339 58.7115Z" fill="#26A12E"/>
<path d="M130.152 66.3997H125.382V64.1967C124.667 65.1023 123.952 65.7467 123.229 66.1298C122.505 66.5129 121.616 66.7045 120.561 66.7045C119.157 66.7045 118.05 66.2778 117.256 65.4158C116.454 64.5537 116.062 63.2302 116.062 61.4452V52.7725H121.197V60.2609C121.197 61.1143 121.354 61.7238 121.659 62.0808C121.964 62.4378 122.4 62.6207 122.967 62.6207C123.577 62.6207 124.074 62.3856 124.467 61.9067C124.859 61.4277 125.051 60.5657 125.051 59.3292V52.7725H130.16V66.391L130.152 66.3997Z" fill="#26A12E"/>
<path d="M132.637 47.6005H137.798V54.1137C138.304 53.5652 138.888 53.1559 139.534 52.886C140.179 52.616 140.902 52.4767 141.687 52.4767C143.309 52.4767 144.652 53.0688 145.715 54.2618C146.779 55.4547 147.311 57.1701 147.311 59.3992C147.311 60.8882 147.067 62.1943 146.579 63.3263C146.09 64.4583 145.419 65.3029 144.565 65.8689C143.71 66.4262 142.751 66.7048 141.705 66.7048C140.807 66.7048 139.987 66.5046 139.246 66.1127C138.688 65.8079 138.077 65.2245 137.415 64.3799V66.3914H132.628V47.5918L132.637 47.6005ZM137.755 59.5559C137.755 60.7315 137.973 61.5761 138.4 62.0985C138.827 62.621 139.377 62.8909 140.039 62.8909C140.65 62.8909 141.164 62.6297 141.574 62.116C141.984 61.6022 142.193 60.7315 142.193 59.5037C142.193 58.424 141.992 57.6316 141.583 57.1353C141.173 56.6302 140.684 56.3777 140.109 56.3777C139.411 56.3777 138.845 56.6389 138.409 57.1701C137.973 57.6925 137.746 58.4936 137.746 59.5646L137.755 59.5559Z" fill="#26A12E"/>
<path d="M163.913 60.888H153.668C153.764 61.7239 153.982 62.3508 154.331 62.7601C154.828 63.3522 155.464 63.6482 156.267 63.6482C156.772 63.6482 157.243 63.5176 157.697 63.2651C157.976 63.0997 158.272 62.8123 158.586 62.4031L163.617 62.8733C162.85 64.2404 161.917 65.2243 160.827 65.8164C159.737 66.4085 158.176 66.7046 156.144 66.7046C154.375 66.7046 152.988 66.4521 151.977 65.9383C150.965 65.4333 150.128 64.6235 149.457 63.5176C148.794 62.4118 148.463 61.1056 148.463 59.6167C148.463 57.492 149.134 55.7679 150.468 54.4444C151.802 53.1295 153.651 52.4678 155.996 52.4678C157.906 52.4678 159.414 52.7638 160.513 53.3559C161.611 53.9481 162.457 54.8014 163.033 55.9247C163.608 57.0479 163.896 58.5021 163.896 60.2958V60.888H163.913ZM158.717 58.3889C158.621 57.3788 158.35 56.6561 157.923 56.2207C157.496 55.7853 156.929 55.5677 156.223 55.5677C155.412 55.5677 154.767 55.8985 154.279 56.5516C153.973 56.9609 153.773 57.5704 153.686 58.3889H158.717Z" fill="#26A12E"/>
</svg>
