<svg width="24" height="24" viewBox="0 0 24 24" fill="none" xmlns="http://www.w3.org/2000/svg">
<path fill-rule="evenodd" clip-rule="evenodd" d="M11.6775 20.7954L11.6806 20.7964C11.8861 20.8861 12.0008 20.8653 12.0008 20.8653C12.0008 20.8653 12.1156 20.8861 12.3221 20.7964L12.3242 20.7954L12.3304 20.7923L12.3492 20.7839C12.4482 20.7378 12.5459 20.6891 12.6423 20.6379C12.8363 20.5377 13.1075 20.3875 13.4319 20.1862C14.0786 19.7857 14.9392 19.1786 15.8039 18.3452C17.5313 16.6804 19.3024 14.0779 19.3024 10.4344C19.3024 9.47555 19.1136 8.52608 18.7466 7.64021C18.3797 6.75434 17.8418 5.94942 17.1638 5.2714C16.4858 4.59339 15.6809 4.05555 14.795 3.68861C13.9091 3.32167 12.9597 3.13281 12.0008 3.13281C11.042 3.13281 10.0925 3.32167 9.20662 3.68861C8.32075 4.05555 7.51582 4.59339 6.83781 5.2714C6.15979 5.94942 5.62196 6.75434 5.25502 7.64021C4.88808 8.52608 4.69922 9.47555 4.69922 10.4344C4.69922 14.0769 6.47038 16.6804 8.19877 18.3452C8.92226 19.0404 9.71695 19.6575 10.5697 20.1862C10.9001 20.3911 11.2398 20.5804 11.5878 20.7537L11.6524 20.7839L11.6712 20.7923L11.6775 20.7954ZM12.0008 12.7814C12.6233 12.7814 13.2202 12.5341 13.6604 12.094C14.1005 11.6538 14.3478 11.0569 14.3478 10.4344C14.3478 9.81196 14.1005 9.21501 13.6604 8.77487C13.2202 8.33474 12.6233 8.08747 12.0008 8.08747C11.3784 8.08747 10.7814 8.33474 10.3413 8.77487C9.90114 9.21501 9.65387 9.81196 9.65387 10.4344C9.65387 11.0569 9.90114 11.6538 10.3413 12.094C10.7814 12.5341 11.3784 12.7814 12.0008 12.7814Z" fill="white"/>
</svg>
