<svg width="97" height="168" viewBox="0 0 97 168" fill="none" xmlns="http://www.w3.org/2000/svg">
<path d="M89.3955 28.5733C91.8765 21.5062 92.9749 9.26702 93.3058 2.31305C93.3627 1.11651 92.333 0.162101 91.1423 0.293749C61.3572 3.58705 51.7305 17.2394 47.1114 26.7852C43.6484 33.9417 40.2744 53.0813 57.4194 55.3953C74.5645 57.7094 85.9244 38.4606 89.3955 28.5733Z" fill="#58C560"/>
<path d="M88.6745 87.709C91.5796 83.2248 94.3965 75.0629 95.8943 70.0466C96.237 68.8988 95.4695 67.7283 94.2802 67.5851C72.6781 64.985 63.4909 73.0477 58.5479 79.0621C54.8096 83.6109 49.0494 96.8011 60.9883 101.451C72.9272 106.101 84.4549 94.2221 88.6745 87.709Z" fill="#35A53C"/>
<path d="M8.81764 58.861C5.76172 54.1138 2.81101 45.4546 1.26255 40.1949C0.92425 39.0457 1.69345 37.8773 2.88298 37.736C25.6443 35.0316 35.2855 43.5395 40.4636 49.8775C44.3734 54.6632 50.3787 68.5246 37.8339 73.3685C25.2891 78.2124 13.2264 65.7098 8.81764 58.861Z" fill="#35A53C"/>
<path d="M15.3312 112.904C12.5681 109.112 9.70708 102.146 8.10811 97.7298C7.70033 96.6035 8.40497 95.3892 9.58537 95.1853C28.56 91.9065 37.0981 98.614 41.7822 103.716C45.3397 107.59 51.1239 119.075 40.7015 123.807C30.279 128.54 19.4142 118.508 15.3312 112.904Z" fill="#58C560"/>
<path d="M80.4546 74.75C68.4153 78.873 55.9989 94.848 50.9858 102.779C50.7868 103.093 50.6875 103.452 50.6875 103.825V109.786C52.6536 104.58 59.9947 94.3144 65.1028 88.1847C70.2109 82.0549 75.7736 78.0696 80.4546 74.75Z" fill="#1A733D"/>
<path d="M52.5813 60.3919C62.4456 28.2833 77.5101 16.7754 87.9233 6.32715C49.9518 28.6263 45.9546 71.3837 45.3235 82.7436C44.6924 94.1035 46.4806 111.722 48.6894 123.923C50.8982 136.125 47.4272 153.059 48.6894 155.584C49.5218 157.249 51.0311 156.74 52.0266 156.039C52.4064 155.772 52.6114 155.332 52.662 154.87C53.494 147.275 54.5371 130.717 52.5813 119.716C50.057 105.516 47.4272 77.1688 52.5813 60.3919Z" fill="#1A733D"/>
<path d="M22.1954 102.34C33.5246 105.99 45.2073 120.099 49.9714 127.168C50.19 127.492 50.3008 127.871 50.3008 128.262V133.464C48.4445 128.839 41.5132 119.72 36.6902 114.275C31.8672 108.829 26.6151 105.289 22.1954 102.34Z" fill="#1A733D"/>
<path d="M21.0415 48.1512C32.0265 52.7345 42.4908 67.769 46.6482 75.2111C46.839 75.5526 46.9178 75.9388 46.8852 76.3286L46.4509 81.5129C44.9871 76.749 38.8412 67.083 34.4896 61.254C30.1379 55.4251 25.1997 51.4588 21.0415 48.1512Z" fill="#1A733D"/>
<path d="M33.1744 155.847C30.268 156.189 25.8335 158.823 24.0482 160.758C23.4696 161.385 23.7435 162.287 24.4277 162.797C26.682 164.477 31.7091 167.294 52.423 167.207C77.3517 167.101 78.088 161.001 77.0362 159.423C75.9843 157.845 68.6214 154.479 64.3089 153.217C59.9963 151.955 54.5267 146.065 48.1105 146.485C41.6942 146.906 36.7507 155.426 33.1744 155.847Z" fill="#865534"/>
</svg>
