<svg width="24" height="24" viewBox="0 0 24 24" fill="none" xmlns="http://www.w3.org/2000/svg">
<path d="M12.6636 9.60828C13.2962 9.60842 13.8094 10.1215 13.8094 10.7542C13.8094 11.3868 13.2962 11.8999 12.6636 11.9H11.3112C11.1869 11.9 11.0859 11.7991 11.0859 11.6748V9.8335C11.0859 9.70923 11.1869 9.60828 11.3112 9.60828H12.6636Z" fill="#9F9F9F"/>
<path fill-rule="evenodd" clip-rule="evenodd" d="M12 3C16.9704 3.00015 21 7.02953 21 12C21 16.9705 16.9704 20.9999 12 21C7.02944 21 3 16.9706 3 12C3 7.02944 7.02944 3 12 3ZM10.4114 7.80872C9.79006 7.80872 9.28638 8.3124 9.28638 8.93372V16.0627C9.28641 16.5662 9.68912 16.9746 10.1862 16.9746C10.6832 16.9746 11.0859 16.5662 11.0859 16.0627V13.6996H12.6636C14.2903 13.6994 15.609 12.3809 15.609 10.7542C15.609 9.1274 14.2903 7.80886 12.6636 7.80872H10.4114Z" fill="#9F9F9F"/>
</svg>
