<svg width="14" height="14" viewBox="0 0 14 14" fill="none" xmlns="http://www.w3.org/2000/svg">
<path fill-rule="evenodd" clip-rule="evenodd" d="M13.6673 6.99967C13.6673 10.6817 10.6827 13.6663 7.00065 13.6663C3.31865 13.6663 0.333984 10.6817 0.333984 6.99967C0.333984 3.31767 3.31865 0.333008 7.00065 0.333008C10.6827 0.333008 13.6673 3.31767 13.6673 6.99967ZM7.00065 12.333C8.41514 12.333 9.77169 11.7711 10.7719 10.7709C11.7721 9.77072 12.334 8.41416 12.334 6.99967C12.334 5.58519 11.7721 4.22863 10.7719 3.22844C9.77169 2.22824 8.41514 1.66634 7.00065 1.66634C5.58616 1.66634 4.22961 2.22824 3.22941 3.22844C2.22922 4.22863 1.66732 5.58519 1.66732 6.99967C1.66732 8.41416 2.22922 9.77072 3.22941 10.7709C4.22961 11.7711 5.58616 12.333 7.00065 12.333Z" fill="#DE1443"/>
<path fill-rule="evenodd" clip-rule="evenodd" d="M7.00065 8.33268C6.82384 8.33268 6.65427 8.26244 6.52925 8.13742C6.40422 8.0124 6.33398 7.84283 6.33398 7.66602V4.33268C6.33398 4.15587 6.40422 3.9863 6.52925 3.86128C6.65427 3.73625 6.82384 3.66602 7.00065 3.66602C7.17746 3.66602 7.34703 3.73625 7.47206 3.86128C7.59708 3.9863 7.66732 4.15587 7.66732 4.33268V7.66602C7.66732 7.84283 7.59708 8.0124 7.47206 8.13742C7.34703 8.26244 7.17746 8.33268 7.00065 8.33268Z" fill="#DE1443"/>
<path d="M6.33398 9.66667C6.33398 9.48986 6.40422 9.32029 6.52925 9.19526C6.65427 9.07024 6.82384 9 7.00065 9C7.17746 9 7.34703 9.07024 7.47206 9.19526C7.59708 9.32029 7.66732 9.48986 7.66732 9.66667C7.66732 9.84348 7.59708 10.013 7.47206 10.1381C7.34703 10.2631 7.17746 10.3333 7.00065 10.3333C6.82384 10.3333 6.65427 10.2631 6.52925 10.1381C6.40422 10.013 6.33398 9.84348 6.33398 9.66667Z" fill="#DE1443"/>
</svg>
