<svg width="24" height="24" viewBox="0 0 24 24" fill="none" xmlns="http://www.w3.org/2000/svg">
<mask id="mask0_255_8103" style="mask-type:luminance" maskUnits="userSpaceOnUse" x="3" y="3" width="18" height="18">
<path d="M18.7535 4.05371H5.24469C4.92856 4.05371 4.62539 4.17929 4.40185 4.40283C4.17832 4.62636 4.05273 4.92954 4.05273 5.24567V18.7545C4.05273 19.0706 4.17832 19.3738 4.40185 19.5974C4.62539 19.8209 4.92856 19.9465 5.24469 19.9465H18.7535C19.0697 19.9465 19.3728 19.8209 19.5964 19.5974C19.8199 19.3738 19.9455 19.0706 19.9455 18.7545V5.24567C19.9455 4.92954 19.8199 4.62636 19.5964 4.40283C19.3728 4.17929 19.0697 4.05371 18.7535 4.05371Z" fill="white" stroke="white" stroke-width="1.4" stroke-linejoin="round"/>
<path d="M7.23047 10.4415C8.55142 8.85226 10.1407 8.05762 11.9983 8.05762C13.8556 8.05762 15.4449 8.85226 16.7661 10.4415" stroke="black" stroke-width="1.4" stroke-linecap="round"/>
<path d="M11.9986 15.4503C12.3147 15.4503 12.6179 15.3247 12.8414 15.1012C13.065 14.8777 13.1906 14.5745 13.1906 14.2584C13.1906 13.9422 13.065 13.6391 12.8414 13.4155C12.6179 13.192 12.3147 13.0664 11.9986 13.0664C11.6825 13.0664 11.3793 13.192 11.1558 13.4155C10.9322 13.6391 10.8066 13.9422 10.8066 14.2584C10.8066 14.5745 10.9322 14.8777 11.1558 15.1012C11.3793 15.3247 11.6825 15.4503 11.9986 15.4503Z" fill="black"/>
<path d="M10.0117 11.4766L12.0015 14.2578" stroke="black" stroke-width="1.4" stroke-linecap="round"/>
</mask>
<g mask="url(#mask0_255_8103)">
<path d="M2.46289 2.46484H21.5342V21.5362H2.46289V2.46484Z" fill="#9F9F9F"/>
</g>
</svg>
